<svg width="500" height="417" viewBox="0 0 500 417" fill="none" xmlns="http://www.w3.org/2000/svg">
<path d="M367.792 254.521C446.479 269.042 500 297.625 500 330.521C500 378.125 388.063 416.667 250 416.667C111.937 416.667 0 378.104 0 330.521C0 297.625 53.5417 269.042 132.208 254.521C166.396 263.396 206.771 268.5 250 268.5C293.229 268.5 333.604 263.396 367.792 254.542V254.521ZM337.667 115C404.5 126.125 450.542 149.521 450.542 176.625C450.542 214.438 360.75 245.104 250 245.104C139.25 245.104 49.4583 214.438 49.4583 176.625C49.4583 149.542 95.5 126.125 162.333 115C188.021 121.521 217.979 125.25 250 125.25C282.021 125.25 311.979 121.5 337.667 115ZM250.917 0C333.854 0 401.104 23.2083 401.104 51.8542C401.104 80.4792 333.854 103.688 250.917 103.688C167.979 103.688 100.729 80.4792 100.729 51.8542C100.729 23.2083 167.979 0 250.917 0Z" fill="white"/>
</svg>
